name ./resultDataOpenSim/trcMotMarkerGrf/sub10/grf-03-02.mot
datacolumns 19
datarows 30
range 1.44000000 1.55600000
endheader

                time	     ground_force_vx	     ground_force_vy	     ground_force_vz	     ground_force_px	     ground_force_py	     ground_force_pz	   l_ground_force_vx	   l_ground_force_vy	   l_ground_force_vz	   l_ground_force_px	   l_ground_force_py	   l_ground_force_pz	     ground_torque_x	     ground_torque_y	     ground_torque_z	   l_ground_torque_x	   l_ground_torque_y	   l_ground_torque_z	
          1.44000000	        -35.96208032	        487.34695619	          3.15397651	          0.70897525	          0.00000000	         -0.00961096	          0.00000000	          0.00000000	          0.00000000	          0.00000000	          0.00000000	          0.00000000	          0.00000000	         -1.06102193	          0.00000000	          0.00000000	          0.00000000	          0.00000000	
          1.44400000	        -33.44211883	        480.69032001	          1.98079085	          0.70901117	          0.00000000	         -0.00951030	          0.00000000	          0.00000000	          0.00000000	          0.00000000	          0.00000000	          0.00000000	          0.00000000	         -0.73324466	          0.00000000	          0.00000000	          0.00000000	          0.00000000	
          1.44800000	        -29.98046335	        474.05069878	          0.12018617	          0.70880856	          0.00000000	         -0.00936047	          0.00000000	          0.00000000	          0.00000000	          0.00000000	          0.00000000	          0.00000000	          0.00000000	         -0.29675615	          0.00000000	          0.00000000	          0.00000000	          0.00000000	
          1.45200000	        -25.82550737	        467.41450082	         -2.06987251	          0.70836830	          0.00000000	         -0.00917382	          0.00000000	          0.00000000	          0.00000000	          0.00000000	          0.00000000	          0.00000000	          0.00000000	          0.18388779	          0.00000000	          0.00000000	          0.00000000	          0.00000000	
          1.45600000	        -21.42028462	        460.80941663	         -4.19004260	          0.70775031	          0.00000000	         -0.00896486	          0.00000000	          0.00000000	          0.00000000	          0.00000000	          0.00000000	          0.00000000	          0.00000000	          0.63828021	          0.00000000	          0.00000000	          0.00000000	          0.00000000	
          1.46000000	        -17.28648517	        454.30562566	         -5.86255432	          0.70706651	          0.00000000	         -0.00875490	          0.00000000	          0.00000000	          0.00000000	          0.00000000	          0.00000000	          0.00000000	          0.00000000	          1.00484533	          0.00000000	          0.00000000	          0.00000000	          0.00000000	
          1.46400000	        -13.88141618	        447.99354786	         -6.80223103	          0.70644733	          0.00000000	         -0.00856963	          0.00000000	          0.00000000	          0.00000000	          0.00000000	          0.00000000	          0.00000000	          0.00000000	          1.24135550	          0.00000000	          0.00000000	          0.00000000	          0.00000000	
          1.46800000	        -11.47585398	        441.95467103	         -6.87930657	          0.70599474	          0.00000000	         -0.00842743	          0.00000000	          0.00000000	          0.00000000	          0.00000000	          0.00000000	          0.00000000	          0.00000000	          1.33003451	          0.00000000	          0.00000000	          0.00000000	          0.00000000	
          1.47200000	        -10.08963453	        436.23819451	         -6.15081965	          0.70575662	          0.00000000	         -0.00833302	          0.00000000	          0.00000000	          0.00000000	          0.00000000	          0.00000000	          0.00000000	          0.00000000	          1.27824631	          0.00000000	          0.00000000	          0.00000000	          0.00000000	
          1.47600000	         -9.49608195	        430.84772983	         -4.84499781	          0.70572231	          0.00000000	         -0.00827829	          0.00000000	          0.00000000	          0.00000000	          0.00000000	          0.00000000	          0.00000000	          0.00000000	          1.11628656	          0.00000000	          0.00000000	          0.00000000	          0.00000000	
          1.48000000	         -9.29140481	        425.73972835	         -3.30241012	          0.70582497	          0.00000000	         -0.00824750	          0.00000000	          0.00000000	          0.00000000	          0.00000000	          0.00000000	          0.00000000	          0.00000000	          0.89279707	          0.00000000	          0.00000000	          0.00000000	          0.00000000	
          1.48400000	         -9.01215517	        420.83074559	         -1.89504222	          0.70595724	          0.00000000	         -0.00822262	          0.00000000	          0.00000000	          0.00000000	          0.00000000	          0.00000000	          0.00000000	          0.00000000	          0.66727944	          0.00000000	          0.00000000	          0.00000000	          0.00000000	
          1.48800000	         -8.26599444	        416.01438599	         -0.95134025	          0.70600218	          0.00000000	         -0.00818697	          0.00000000	          0.00000000	          0.00000000	          0.00000000	          0.00000000	          0.00000000	          0.00000000	          0.49947177	          0.00000000	          0.00000000	          0.00000000	          0.00000000	
          1.49200000	         -6.83268978	        411.18823394	         -0.70716858	          0.70585081	          0.00000000	         -0.00812839	          0.00000000	          0.00000000	          0.00000000	          0.00000000	          0.00000000	          0.00000000	          0.00000000	          0.43706178	          0.00000000	          0.00000000	          0.00000000	          0.00000000	
          1.49600000	         -4.70367823	        406.29235152	         -1.28279638	          0.70545960	          0.00000000	         -0.00803822	          0.00000000	          0.00000000	          0.00000000	          0.00000000	          0.00000000	          0.00000000	          0.00000000	          0.50505487	          0.00000000	          0.00000000	          0.00000000	          0.00000000	
          1.50000000	         -2.06219971	        401.34866202	         -2.67333114	          0.70485431	          0.00000000	         -0.00791279	          0.00000000	          0.00000000	          0.00000000	          0.00000000	          0.00000000	          0.00000000	          0.00000000	          0.70044547	          0.00000000	          0.00000000	          0.00000000	          0.00000000	
          1.50400000	          0.77673202	        396.46819984	         -4.74449690	          0.70410386	          0.00000000	         -0.00776188	          0.00000000	          0.00000000	          0.00000000	          0.00000000	          0.00000000	          0.00000000	          0.00000000	          0.99406668	          0.00000000	          0.00000000	          0.00000000	          0.00000000	
          1.50800000	          3.45439155	        391.81851539	         -7.23809630	          0.70334058	          0.00000000	         -0.00760433	          0.00000000	          0.00000000	          0.00000000	          0.00000000	          0.00000000	          0.00000000	          0.00000000	          1.33860646	          0.00000000	          0.00000000	          0.00000000	          0.00000000	
          1.51200000	          5.66612726	        387.57420151	         -9.80274484	          0.70267380	          0.00000000	         -0.00745804	          0.00000000	          0.00000000	          0.00000000	          0.00000000	          0.00000000	          0.00000000	          0.00000000	          1.67958945	          0.00000000	          0.00000000	          0.00000000	          0.00000000	
          1.51600000	          7.24409093	        383.87162998	        -12.05943474	          0.70217989	          0.00000000	         -0.00734444	          0.00000000	          0.00000000	          0.00000000	          0.00000000	          0.00000000	          0.00000000	          0.00000000	          1.96595848	          0.00000000	          0.00000000	          0.00000000	          0.00000000	
          1.52000000	          8.20205710	        380.78470409	        -13.68629169	          0.70188678	          0.00000000	         -0.00728847	          0.00000000	          0.00000000	          0.00000000	          0.00000000	          0.00000000	          0.00000000	          0.00000000	          2.15844193	          0.00000000	          0.00000000	          0.00000000	          0.00000000	
          1.52400000	          8.72759975	        378.32992309	        -14.49208416	          0.70174863	          0.00000000	         -0.00730639	          0.00000000	          0.00000000	          0.00000000	          0.00000000	          0.00000000	          0.00000000	          0.00000000	          2.23551355	          0.00000000	          0.00000000	          0.00000000	          0.00000000	
          1.52800000	          9.12603542	        376.50082548	        -14.45399615	          0.70166955	          0.00000000	         -0.00739686	          0.00000000	          0.00000000	          0.00000000	          0.00000000	          0.00000000	          0.00000000	          0.00000000	          2.19714996	          0.00000000	          0.00000000	          0.00000000	          0.00000000	
          1.53200000	          9.73225930	        375.31771937	        -13.71123680	          0.70155903	          0.00000000	         -0.00755039	          0.00000000	          0.00000000	          0.00000000	          0.00000000	          0.00000000	          0.00000000	          0.00000000	          2.06587305	          0.00000000	          0.00000000	          0.00000000	          0.00000000	
          1.53600000	         10.81569761	        374.86076697	        -12.52474193	          0.70135949	          0.00000000	         -0.00775178	          0.00000000	          0.00000000	          0.00000000	          0.00000000	          0.00000000	          0.00000000	          0.00000000	          1.88388294	          0.00000000	          0.00000000	          0.00000000	          0.00000000	
          1.54000000	         12.50929433	        375.26415612	        -11.22122976	          0.70106874	          0.00000000	         -0.00798202	          0.00000000	          0.00000000	          0.00000000	          0.00000000	          0.00000000	          0.00000000	          0.00000000	          1.70554497	          0.00000000	          0.00000000	          0.00000000	          0.00000000	
          1.54400000	         14.78327151	        376.68136861	        -10.13532624	          0.70070973	          0.00000000	         -0.00822764	          0.00000000	          0.00000000	          0.00000000	          0.00000000	          0.00000000	          0.00000000	          0.00000000	          1.58617152	          0.00000000	          0.00000000	          0.00000000	          0.00000000	
          1.54800000	         17.46778446	        379.25408993	         -9.55505555	          0.70030510	          0.00000000	         -0.00848157	          0.00000000	          0.00000000	          0.00000000	          0.00000000	          0.00000000	          0.00000000	          0.00000000	          1.56991630	          0.00000000	          0.00000000	          0.00000000	          0.00000000	
          1.55200000	         20.31150820	        383.10403621	         -9.67076947	          0.69988527	          0.00000000	         -0.00874079	          0.00000000	          0.00000000	          0.00000000	          0.00000000	          0.00000000	          0.00000000	          0.00000000	          1.68034007	          0.00000000	          0.00000000	          0.00000000	          0.00000000	
          1.55600000	         23.05695590	        388.33522896	        -10.53302418	          0.69949824	          0.00000000	         -0.00900787	          0.00000000	          0.00000000	          0.00000000	          0.00000000	          0.00000000	          0.00000000	          0.00000000	          1.91623594	          0.00000000	          0.00000000	          0.00000000	          0.00000000	
